<svg version="1.0" xmlns="http://www.w3.org/2000/svg" width="40" height="40" viewBox="0 0 800.000000 800.000000" preserveAspectRatio="xMidYMid meet">
  <g transform="translate(77.680943,742.591296) scale(0.083842,-0.083842)" fill="#4A6FA5" stroke="none">
    <path d="M1645 6287 c-115 -31 -217 -114 -270 -222 -38 -79 -47 -204 -19 -291 22 -70 90 -165 149 -206 l45 -32 0 -72 c0 -101 23 -212 60 -285 17 -35 36 -69 42 -76 7 -9 0 -37 -25 -100 -48 -118 -65 -238 -49 -334 14 -82 59 -192 102 -253 l30 -42 -35 -114 c-135 -438 -144 -867 -26 -1220 177 -527 711 -927 1456 -1089 375 -81 865 -99 1285 -45 422 53 823 194 1122 394 360 241 568 537 650 928 20 95 23 135 23 347 -1 222 -3 250 -28 370 -28 133 -69 271 -113 382 l-25 62 40 83 c55 115 65 157 65 283 1 114 -19 208 -65 297 l-19 36 35 58 c46 76 64 142 76 282 l10 117 54 50 c101 94 139 186 134 319 -12 277 -290 455 -554 354 -82 -31 -175 -119 -217 -206 -31 -62 -33 -74 -33 -167 0 -88 3 -107 27 -158 34 -72 71 -118 137 -167 61 -46 126 -69 212 -75 l64 -4 3 -43 c4 -56 -15 -152 -39 -201 l-20 -38 -52 46 c-100 88 -273 155 -402 155 -70 0 -180 -25 -241 -55 -28 -14 -56 -25 -61 -25 -6 0 -53 20 -105 44 -596 276 -1524 310 -2216 80 -73 -24 -176 -64 -228 -89 l-96 -44 -59 30 c-95 47 -169 63 -277 56 -141 -10 -275 -64 -382 -154 -21 -18 -41 -33 -43 -33 -14 0 -50 124 -54 190 l-6 75 79 11 c148 20 268 103 329 228 38 77 47 214 20 295 -22 67 -92 161 -148 200 -99 67 -237 95 -342 68z m191 -166 c99 -45 154 -126 154 -227 0 -75 -24 -127 -80 -177 -55 -51 -97 -67 -167 -67 -74 1 -127 24 -180 83 -96 105 -91 238 15 340 68 66 175 86 258 48z m4209 -5 c55 -25 110 -81 131 -132 20 -47 17 -141 -5 -189 -23 -50 -84 -109 -133 -130 -50 -20 -134 -19 -183 4 -158 72 -204 256 -96 382 72 85 188 111 286 65z m-1995 -676 c428 -27 744 -104 1026 -249 166 -85 289 -176 430 -316 192 -191 318 -400 417 -690 79 -231 107 -396 107 -625 0 -239 -37 -416 -124 -595 -171 -350 -513 -615 -1015 -784 -550 -186 -1352 -197 -1940 -26 -605 176 -1037 541 -1164 985 -84 291 -80 608 10 960 90 349 207 565 427 786 347 348 792 516 1471 557 114 7 199 6 355 -3z m-1730 -201 c27 -6 50 -14 50 -18 0 -4 -26 -25 -57 -48 -109 -77 -235 -196 -316 -298 -80 -101 -169 -238 -190 -296 -6 -16 -14 -29 -18 -29 -11 0 -38 75 -50 142 -28 153 48 335 189 451 111 92 251 126 392 96z m3265 -4 c157 -41 301 -172 356 -323 30 -84 33 -242 5 -306 l-18 -39 -40 74 c-58 107 -141 219 -241 325 -79 83 -132 128 -275 231 l-44 31 44 10 c66 15 148 14 213 -3z"/>
    <path d="M3535 4823 c-210 -5 -513 -25 -590 -39 -252 -46 -500 -183 -650 -361 -311 -366 -372 -892 -152 -1318 159 -308 451 -517 822 -589 308 -60 908 -86 1310 -57 325 24 522 55 672 105 434 146 713 473 777 907 27 184 15 346 -39 533 -113 389 -426 680 -825 766 -208 45 -759 67 -1325 53z m970 -173 c342 -23 454 -52 635 -168 288 -184 460 -538 436 -902 -26 -408 -288 -737 -693 -869 -102 -33 -214 -53 -438 -78 -200 -22 -938 -25 -1125 -5 -382 42 -541 86 -710 197 -318 209 -483 586 -426 971 53 363 265 642 585 771 146 59 263 74 761 97 133 6 820 -4 975 -14z"/>
    <path d="M2874 4130 c-103 -21 -204 -103 -247 -198 -14 -33 -21 -69 -21 -122 -1 -66 3 -84 32 -143 37 -74 88 -123 168 -159 39 -18 67 -23 134 -23 73 0 92 4 138 28 75 39 127 90 159 155 24 49 28 69 28 142 0 74 -4 92 -30 144 -65 128 -223 205 -361 176z m129 -166 c73 -37 107 -88 107 -161 0 -188 -279 -224 -341 -45 -45 134 109 269 234 206z"/>
    <path d="M4707 4130 c-110 -19 -216 -108 -257 -218 -57 -148 18 -325 169 -399 48 -24 68 -28 141 -28 105 0 166 25 233 93 69 71 91 122 95 219 4 72 1 89 -23 140 -48 106 -132 170 -250 192 -32 6 -59 10 -59 10 -1 -1 -22 -5 -49 -9z m130 -171 c105 -51 130 -171 56 -260 -75 -89 -219 -75 -279 27 -53 91 -16 194 86 238 48 21 86 20 137 -5z"/>
    <path d="M3295 3416 c-32 -32 -32 -77 -2 -176 86 -279 327 -455 597 -437 116 8 201 37 295 99 133 90 228 240 257 407 11 66 11 73 -9 98 l-20 28 -547 3 -547 2 -24 -24z m980 -148 c-31 -102 -138 -222 -242 -271 -63 -30 -75 -32 -173 -32 -97 0 -110 2 -171 31 -83 40 -166 121 -208 204 -17 35 -31 69 -31 77 0 11 75 13 416 13 l415 0 -6 -22z"/>
  </g>
</svg>
